<?xml version="1.0" encoding="UTF-8" standalone="no"?>
<!-- Created with Inkscape (http://www.inkscape.org/) -->

<svg
   xmlns:dc="http://purl.org/dc/elements/1.1/"
   xmlns:cc="http://creativecommons.org/ns#"
   xmlns:rdf="http://www.w3.org/1999/02/22-rdf-syntax-ns#"
   xmlns:svg="http://www.w3.org/2000/svg"
   xmlns="http://www.w3.org/2000/svg"
   xmlns:sodipodi="http://sodipodi.sourceforge.net/DTD/sodipodi-0.dtd"
   xmlns:inkscape="http://www.inkscape.org/namespaces/inkscape"
   width="210mm"
   height="297mm"
   viewBox="0 0 744.09448819 1052.3622047"
   id="svg3353"
   version="1.1"
   inkscape:version="0.91 r13725"
   sodipodi:docname="carousel_arrow.svg">
  <defs
     id="defs3355" />
  <sodipodi:namedview
     id="base"
     pagecolor="#ffffff"
     bordercolor="#666666"
     borderopacity="1.0"
     inkscape:pageopacity="0.0"
     inkscape:pageshadow="2"
     inkscape:zoom="0.35"
     inkscape:cx="-207.85714"
     inkscape:cy="520"
     inkscape:document-units="px"
     inkscape:current-layer="layer1"
     showgrid="false"
     inkscape:window-width="1366"
     inkscape:window-height="705"
     inkscape:window-x="-8"
     inkscape:window-y="-8"
     inkscape:window-maximized="1" />
  <metadata
     id="metadata3358">
    <rdf:RDF>
      <cc:Work
         rdf:about="">
        <dc:format>image/svg+xml</dc:format>
        <dc:type
           rdf:resource="http://purl.org/dc/dcmitype/StillImage" />
        <dc:title></dc:title>
      </cc:Work>
    </rdf:RDF>
  </metadata>
  <g
     inkscape:label="Layer 1"
     inkscape:groupmode="layer"
     id="layer1">
    <path
       style="fill:#fefefe"
       d="M 489.82688,1029.7161 C 467.38375,1019.5938 259.11225,607.84422 259.11225,573.59676 c 0,-12.30591 -4.13558,-28.9965 -9.19018,-37.0902 -7.31479,-11.71284 -7.31479,-17.71877 0,-29.43161 5.0546,-8.09369 9.19018,-24.78428 9.19018,-37.09019 0,-14.00753 39.92027,-102.00118 106.75346,-235.30969 84.55863,-168.664463 110.7412,-214.715169 125.9338,-221.496157 21.02701,-9.3850949 34.27959,0.138907 20.02644,14.392058 -4.53437,4.534368 -8.24431,19.23068 -8.24431,32.658476 0,16.62507 -34.84298,94.147833 -109.212,242.987733 L 285.15763,521.79076 394.36964,740.36434 c 74.36902,148.83989 109.212,226.36272 109.212,242.98772 0,13.4278 4.00041,28.41464 8.8898,33.30404 13.33106,13.331 -2.19265,22.2842 -22.64456,13.06 z"
       id="path3372"
       inkscape:connector-curvature="0" />
  </g>
</svg>
